<?xml version="1.0" encoding="UTF-8"?>
<svg version="1.1" xmlns="http://www.w3.org/2000/svg" width="118" height="123">
<path d="M0 0 C38.94 0 77.88 0 118 0 C118 40.59 118 81.18 118 123 C79.06 123 40.12 123 0 123 C0 82.41 0 41.82 0 0 Z " fill="#5C4BEA" transform="translate(0,0)"/>
<path d="M0 0 C3.96 0 7.92 0 12 0 C12.01458252 1.00377686 12.02916504 2.00755371 12.04418945 3.04174805 C12.10232052 6.7787575 12.17955165 10.51517369 12.26245117 14.25170898 C12.2956311 15.86651963 12.32368458 17.48144431 12.34643555 19.09643555 C12.38011025 21.42285592 12.43242963 23.74823783 12.48828125 26.07421875 C12.49467117 26.79212082 12.5010611 27.51002289 12.50764465 28.24967957 C12.63543856 32.64197334 13.30282943 35.50008533 16 39 C18.88861709 40.44430855 20.79647701 40.37688506 24 40 C27.62370824 37.25064674 28.86919649 35.74990459 29.65942383 31.21948242 C29.70021025 29.76529651 29.71476463 28.31020598 29.70703125 26.85546875 C29.72215256 26.08568192 29.73727386 25.31589508 29.75285339 24.52278137 C29.79565263 22.07738782 29.8045601 19.6332304 29.8125 17.1875 C29.83565061 15.52405586 29.86101713 13.86064098 29.88867188 12.19726562 C29.95144647 8.13140154 29.98384249 4.06630575 30 0 C33.96 0 37.92 0 42 0 C42.09961748 4.96210007 42.1718178 9.9236054 42.21972656 14.88647461 C42.23971886 16.57114821 42.26692223 18.25575351 42.30175781 19.94018555 C42.67411815 38.4213053 42.67411815 38.4213053 38 45 C32.31179706 50.68820294 26.4882562 51.42904819 18.67675781 51.44042969 C11.7162927 51.25286203 7.82667754 48.92090013 3.125 44.0625 C0.1790247 38.66154529 -0.27786257 33.58873448 -0.1953125 27.5390625 C-0.1924826 26.74849457 -0.18965271 25.95792664 -0.18673706 25.1434021 C-0.17560955 22.63710916 -0.15051926 20.13118355 -0.125 17.625 C-0.11496058 15.91797394 -0.10583641 14.21094223 -0.09765625 12.50390625 C-0.07569463 8.3357976 -0.04121671 4.16796092 0 0 Z " fill="#F9F9FE" transform="translate(36,39)"/>
</svg>
